<?xml version="1.0" encoding="UTF-8"?>
<svg xmlns="http://www.w3.org/2000/svg" viewBox="0 0 24 24" fill="none">
  <path d="M4 7H10V9H4V7Z" fill="currentColor"/>
  <path d="M4 11H10V13H4V11Z" fill="currentColor"/>
  <path d="M4 15H10V17H4V15Z" fill="currentColor"/>
  <path d="M14 7H20V9H14V7Z" fill="currentColor"/>
  <path d="M14 11H20V13H14V11Z" fill="currentColor"/>
  <path d="M14 15H20V17H14V15Z" fill="currentColor"/>
  <path d="M21 3H3C2.448 3 2 3.448 2 4V20C2 20.552 2.448 21 3 21H21C21.552 21 22 20.552 22 20V4C22 3.448 21.552 3 21 3ZM20 19H4V5H20V19Z" fill="currentColor"/>
</svg> 