<?xml version="1.0" encoding="UTF-8"?>
<svg xmlns="http://www.w3.org/2000/svg" viewBox="0 0 24 24" fill="none">
  <path d="M23 18.8879H21.3752L14.4783 9.19806C14.296 8.94404 14.0348 8.76804 13.7425 8.7081C13.4501 8.64816 13.1469 8.70954 12.9027 8.87682L9.39196 11.3334L4.64044 2.66445C4.47147 2.36404 4.17268 2.14932 3.82875 2.07701C3.48481 2.0047 3.12904 2.08197 2.85124 2.29108L0.160821 4.30833C-0.0326277 4.45612 -0.0572498 4.74256 0.10635 4.91911C0.269887 5.09566 0.58004 5.11882 0.77351 4.9707L3.47462 2.948C3.57362 2.8734 3.70204 2.84879 3.82397 2.87343C3.94591 2.89806 4.05054 2.97 4.10895 3.07304L9.072 12.1139C9.25442 12.4207 9.55928 12.6374 9.91032 12.7034C10.2614 12.7694 10.6216 12.6786 10.9001 12.4537L14.4757 9.94662C14.5521 9.89254 14.6521 9.8796 14.7423 9.91091C14.8325 9.94222 14.9015 10.0152 14.9288 10.1043L21.996 20.0192H1.96948C1.69617 20.0192 1.47461 20.2266 1.47461 20.482C1.47461 20.7374 1.69617 20.9447 1.96948 20.9447H23C23.2733 20.9447 23.4949 20.7374 23.4949 20.482C23.4949 20.2266 23.2733 18.8879 23 18.8879Z" fill="currentColor"/>
</svg> 